<svg xmlns="http://www.w3.org/2000/svg" width="21" height="21" fill="none" xmlns:v="https://vecta.io/nano"><g clip-path="url(#A)"><path d="M13.339 10.509l7.377-7.377c.389-.389.389-1.026 0-1.415L19.301.3c-.389-.389-1.026-.389-1.415 0l-7.377 7.378L3.132.301c-.389-.389-1.026-.389-1.415 0L.301 1.716c-.389.389-.389 1.026 0 1.415l7.377 7.377-7.377 7.377c-.389.389-.389 1.026 0 1.415l1.416 1.415c.389.389 1.026.389 1.415 0l7.377-7.377 7.377 7.377c.389.389 1.026.389 1.415 0l1.415-1.415c.389-.389.389-1.026 0-1.415l-7.378-7.377z" fill="#fb565a" fill-opacity=".3"/></g><defs><clipPath id="A"><path fill="#fff" d="M0 0h21v21H0z"/></clipPath></defs></svg>